<svg width="1257" height="245" viewBox="0 0 1257 245" fill="none" xmlns="http://www.w3.org/2000/svg">
<rect width="1257" height="245" rx="27" fill="#0E668D"/>
<rect width="1257" height="245" rx="27" fill="#0E668D"/>
<rect width="1257" height="245" rx="27" fill="#0E668D"/>
<rect width="1257" height="245" rx="27" fill="#0E668D"/>
<path d="M758 99.5C758 99.5 771.776 102.196 769.808 115.002C767.84 127.807 758 126.459 758 126.459" stroke="white" stroke-opacity="0.08" stroke-width="4"/>
<path d="M962.151 171.256C962.151 171.256 957.734 184.58 945.28 181.008C932.826 177.435 935.408 167.845 935.408 167.845" stroke="white" stroke-opacity="0.08" stroke-width="4"/>
<path d="M397.106 89.889C397.106 89.889 385.997 98.4693 377.666 88.5471C369.335 78.6249 376.836 72.1152 376.836 72.1152" stroke="white" stroke-opacity="0.08" stroke-width="4"/>
<path d="M615.568 41.4257C615.568 41.4257 616.441 27.416 629.394 27.6935C642.347 27.971 642.296 37.9024 642.296 37.9024" stroke="white" stroke-opacity="0.08" stroke-width="4"/>
<path d="M151.995 159C151.995 159 161.953 168.892 153.205 178.449C144.457 188.005 137.023 181.419 137.023 181.419" stroke="white" stroke-opacity="0.08" stroke-width="4"/>
<path d="M1049.59 119.078C1049.59 119.078 1035.58 120.044 1034.17 107.165C1032.75 94.2873 1042.6 93.0394 1042.6 93.0394" stroke="white" stroke-opacity="0.08" stroke-width="4"/>
<path d="M544.371 138.382C544.371 138.382 525.633 142.841 524.67 148.735C523.638 155.048 534.432 156.483 544.029 156.664C560.849 156.981 526.366 133.1 526.366 133.1" stroke="white" stroke-opacity="0.08" stroke-width="4"/>
<path d="M781.809 38.6411C781.809 38.6411 763.071 43.1004 762.108 48.9947C761.076 55.3071 771.87 56.7418 781.467 56.9228C798.287 57.2401 763.804 33.3591 763.804 33.3591" stroke="white" stroke-opacity="0.08" stroke-width="4"/>
<path d="M261.809 42.6411C261.809 42.6411 243.071 47.1004 242.108 52.9947C241.076 59.3071 251.87 60.7418 261.467 60.9228C278.287 61.2401 243.804 37.3591 243.804 37.3591" stroke="white" stroke-opacity="0.08" stroke-width="4"/>
<path d="M52.6086 149.289C52.6086 149.289 57.9744 130.791 53.3227 127.045C48.341 123.033 41.7679 131.714 36.8755 139.972C28.3009 154.446 66.0862 136.234 66.0862 136.234" stroke="white" stroke-opacity="0.08" stroke-width="4"/>
<path d="M225.814 213.106C225.814 213.106 245.064 213.749 247.549 208.318C250.209 202.501 240.177 198.269 230.968 195.562C214.828 190.818 241.787 222.952 241.787 222.952" stroke="white" stroke-opacity="0.08" stroke-width="4"/>
<path d="M906.225 54.0143C906.225 54.0143 919.668 67.8081 925.221 65.6102C931.168 63.2564 926.861 53.2562 922.091 44.9262C913.732 30.3269 910.931 72.1783 910.931 72.1783" stroke="white" stroke-opacity="0.08" stroke-width="4"/>
<path d="M1124.23 172.014C1124.23 172.014 1137.67 185.808 1143.22 183.61C1149.17 181.256 1144.86 171.256 1140.09 162.926C1131.73 148.327 1128.93 190.178 1128.93 190.178" stroke="white" stroke-opacity="0.08" stroke-width="4"/>
<path d="M335.749 145.108C335.749 145.108 310.33 154.27 316.875 161.718C321.779 167.298 330.211 166.65 336.365 162.517C343.628 157.64 339.534 141.049 339.534 141.049" stroke="white" stroke-opacity="0.08" stroke-width="4"/>
<path d="M98.9704 39.5187C98.9704 39.5187 113.345 62.3968 119.225 54.4135C123.63 48.432 121.197 40.3321 115.846 35.2014C109.532 29.1469 94.1969 36.6865 94.1969 36.6865" stroke="white" stroke-opacity="0.08" stroke-width="4"/>
<path d="M473.97 37.5187C473.97 37.5187 488.345 60.3968 494.225 52.4135C498.63 46.432 496.197 38.3321 490.846 33.2014C484.532 27.1469 469.197 34.6865 469.197 34.6865" stroke="white" stroke-opacity="0.08" stroke-width="4"/>
<path d="M461.97 212.519C461.97 212.519 476.345 235.397 482.225 227.413C486.63 221.432 484.197 213.332 478.846 208.201C472.532 202.147 457.197 209.687 457.197 209.687" stroke="white" stroke-opacity="0.08" stroke-width="4"/>
<path d="M1167.97 41.5187C1167.97 41.5187 1182.34 64.3968 1188.22 56.4135C1192.63 50.432 1190.2 42.3321 1184.85 37.2014C1178.53 31.1469 1163.2 38.6865 1163.2 38.6865" stroke="white" stroke-opacity="0.08" stroke-width="4"/>
<path d="M815.348 187.341C815.348 187.341 788.728 191.968 793.886 200.436C797.75 206.78 806.168 207.6 812.944 204.594C820.941 201.047 819.779 183.998 819.779 183.998" stroke="white" stroke-opacity="0.08" stroke-width="4"/>
<path d="M655.898 183.613C655.898 183.613 651.192 157.007 642.74 162.19C636.407 166.073 635.612 174.493 638.638 181.26C642.209 189.246 659.254 188.034 659.254 188.034" stroke="white" stroke-opacity="0.08" stroke-width="4"/>
</svg>
