<svg width="63" height="63" viewBox="0 0 63 63" fill="none" xmlns="http://www.w3.org/2000/svg">
<path d="M31.5991 8.63721C18.6312 8.63721 8.07772 18.8021 8.07315 31.2943C8.0701 35.2893 9.15532 39.1881 11.213 42.6222L7.875 54.363L20.3475 51.2125C23.8169 53.0273 27.6745 53.974 31.5899 53.9713H31.5991C44.5669 53.9713 55.1204 43.8049 55.125 31.3126C55.128 25.2616 52.6832 19.5657 48.2402 15.2842C43.7987 11.0012 37.8925 8.63873 31.5991 8.63721ZM31.5991 50.144H31.5914C28.0828 50.144 24.6411 49.2356 21.6385 47.5194L20.9221 47.1109L13.5237 48.9796L15.499 42.0292L15.0341 41.3174C13.0815 38.3394 12.042 34.8555 12.0437 31.2943C12.0482 20.91 20.8215 12.4645 31.6067 12.4645C36.8286 12.466 41.738 14.4276 45.4311 17.9866C49.1242 21.5456 51.156 26.2782 51.1529 31.3111C51.1484 41.6954 42.3766 50.144 31.5975 50.144H31.5991ZM42.3248 36.0376C41.7365 35.7557 38.8466 34.3854 38.307 34.1949C37.769 34.0074 37.3773 33.9099 36.9856 34.4769C36.5954 35.0439 35.4675 36.3196 35.1261 36.6961C34.7816 37.0741 34.4386 37.1198 33.8503 36.8378C33.262 36.5543 31.3674 35.9569 29.1238 34.0272C27.3755 32.5274 26.1958 30.674 25.8529 30.1055C25.5099 29.54 25.8163 29.2336 26.1104 28.9517C26.3741 28.7002 26.6988 28.2917 26.9914 27.9609C27.2841 27.6302 27.3816 27.3939 27.5798 27.0159C27.7749 26.6395 27.6773 26.3072 27.5295 26.0252C27.3816 25.7402 26.208 22.954 25.7157 21.8215C25.2401 20.718 24.7554 20.8658 24.3942 20.8475C24.0513 20.8323 23.6611 20.8277 23.2663 20.8277C22.8776 20.8277 22.239 20.9695 21.6994 21.5365C21.1614 22.1035 19.6418 23.4722 19.6418 26.2584C19.6418 29.0462 21.7482 31.7379 22.0424 32.1159C22.3365 32.4924 26.1882 38.2127 32.0853 40.6666C33.4875 41.2473 34.5819 41.5964 35.437 41.8585C36.8453 42.2899 38.1272 42.2274 39.1393 42.0826C40.2672 41.9195 42.6175 40.7139 43.1052 39.3924C43.596 38.0709 43.596 36.9369 43.4497 36.7007C43.3064 36.4644 42.9132 36.3227 42.3248 36.0376Z" fill="#0E668D"/>
</svg>
